<svg xmlns="http://www.w3.org/2000/svg" width="512" height="512" fill="none" viewBox="0 0 512 512">
  <path fill="#262626" d="M394.985 69.82c-24.727 3.368-45.333 9.622-61.818 18.763-16 8.66-28.848 20.687-38.545 36.081-9.697 14.914-16.485 33.195-20.364 54.844-3.77 21.041-5.936 42.91-6.499 64.904 22.155-.559 44.188-2.71 65.408-6.453 21.818-3.849 40.242-10.584 55.272-20.205 15.516-9.622 27.637-22.37 36.365-38.246 9.212-16.357 15.515-36.803 18.909-61.338h20.363c-2.424 27.902-4.364 53.64-5.818 77.213-.97 23.092-1.454 43.298-1.454 60.617 0 17.319.484 37.524 1.454 60.616 1.454 23.092 3.394 48.83 5.818 77.214h-20.363c-3.394-24.535-9.697-44.74-18.909-60.616-8.728-16.357-20.849-29.346-36.365-38.968-15.03-9.622-33.454-16.357-55.272-20.206-21.219-3.743-43.253-5.894-65.408-6.453.563 21.994 2.729 43.864 6.499 64.905 3.879 21.649 10.667 40.17 20.364 55.565 9.697 14.913 22.545 26.94 38.545 36.081 16.485 8.659 37.091 14.673 61.818 18.041v20.205c-28.121-2.406-54.06-4.089-77.818-5.051-23.273-1.443-43.636-2.165-61.091-2.165-17.454 0-37.818.722-61.091 2.165-23.272.962-49.212 2.645-77.818 5.051v-20.205c24.727-3.368 45.091-9.382 61.091-18.041 16.485-9.141 29.575-21.168 39.272-36.081 9.697-15.395 16.486-33.916 20.365-55.565 3.769-21.041 5.936-42.911 6.499-64.905-22.156.559-44.189 2.71-65.409 6.453-21.818 3.849-40.484 10.584-56 20.206-15.03 9.622-27.15 22.611-36.363 38.968-8.727 15.876-14.789 36.081-18.183 60.616H48.076c2.424-28.384 4.121-54.122 5.091-77.214 1.454-23.092 2.182-43.297 2.182-60.616 0-17.319-.727-37.525-2.182-60.617-.97-23.573-2.667-49.311-5.09-77.213h20.362c3.394 24.535 9.456 44.981 18.183 61.338 9.212 15.875 21.333 28.624 36.363 38.246 15.515 9.622 34.182 16.356 56 20.205 21.22 3.743 43.253 5.894 65.409 6.453-.563-21.994-2.73-43.863-6.499-64.904-3.879-21.649-10.668-39.93-20.365-54.844-9.697-15.394-22.787-27.421-39.272-36.081-16-9.14-36.364-15.395-61.091-18.763V49.615c28.606 2.406 54.546 4.33 77.818 5.774 23.273.962 43.637 1.442 61.091 1.442 17.455 0 37.818-.48 61.091-1.442 23.758-1.444 49.697-3.368 77.818-5.774V69.82Z"/>
</svg>
